<svg width="204" height="204" viewBox="0 0 204 204" fill="none" xmlns="http://www.w3.org/2000/svg">
<rect width="204" height="204" fill="#0061FE"/>
<path d="M40 66.9826V60.1843C39.9996 59.8848 40.0722 59.5896 40.2116 59.3245C40.351 59.0593 40.5529 58.8321 40.7999 58.6626C41.0469 58.4931 41.3315 58.3864 41.629 58.3517C41.9266 58.317 42.2281 58.3554 42.5074 58.4636L86.7237 75.5789C87.0704 75.7132 87.3685 75.9492 87.5786 76.256C87.7887 76.5628 87.9011 76.926 87.9009 77.2978V84.3282C87.901 84.7037 87.7864 85.0703 87.5723 85.3788C87.3583 85.6873 87.0551 85.9231 86.7034 86.0545L42.4872 102.617C42.209 102.721 41.9099 102.756 41.6152 102.72C41.3206 102.683 41.0391 102.576 40.7949 102.407C40.5506 102.238 40.3508 102.013 40.2124 101.75C40.074 101.487 40.0011 101.195 40 100.898V94.065C40.0003 93.6898 40.1151 93.3237 40.3291 93.0155C40.5431 92.7074 40.8461 92.4719 41.1975 92.3406L62.7529 84.2637C63.1047 84.1323 63.4079 83.8966 63.6219 83.588C63.8359 83.2795 63.9505 82.9129 63.9505 82.5375V78.5138C63.9505 78.1383 63.8359 77.7717 63.6219 77.4632C63.4079 77.1547 63.1047 76.9189 62.7529 76.7875L41.1975 68.7088C40.8461 68.5775 40.5431 68.342 40.3291 68.0339C40.1151 67.7257 40.0003 67.3577 40 66.9826Z" fill="#F7F5F2"/>
<path d="M163.437 66.6432V59.845C163.437 59.5454 163.365 59.2503 163.225 58.9851C163.086 58.72 162.884 58.4928 162.637 58.3233C162.39 58.1538 162.105 58.0471 161.808 58.0124C161.51 57.9777 161.209 58.0161 160.929 58.1242L116.713 75.2396C116.366 75.3738 116.068 75.6099 115.858 75.9167C115.648 76.2235 115.536 76.5866 115.536 76.9585V83.9889C115.536 84.3644 115.65 84.7309 115.864 85.0394C116.078 85.348 116.382 85.5837 116.733 85.7152L160.95 102.278C161.228 102.382 161.527 102.417 161.822 102.38C162.116 102.344 162.398 102.236 162.642 102.068C162.886 101.899 163.086 101.673 163.224 101.411C163.363 101.148 163.436 100.856 163.437 100.559V93.7257C163.436 93.3505 163.322 92.9843 163.108 92.6762C162.894 92.368 162.591 92.1325 162.239 92.0012L140.684 83.9244C140.332 83.793 140.029 83.5572 139.815 83.2487C139.601 82.9402 139.486 82.5736 139.486 82.1981V78.1744C139.486 77.799 139.601 77.4324 139.815 77.1239C140.029 76.8154 140.332 76.5796 140.684 76.4482L162.239 68.3695C162.591 68.2382 162.894 68.0027 163.108 67.6946C163.322 67.3864 163.436 67.0184 163.437 66.6432Z" fill="#F7F5F2"/>
<path d="M59.2685 127.124L53.381 123.725C53.1214 123.576 52.9021 123.365 52.7421 123.112C52.5822 122.859 52.4864 122.57 52.4631 122.272C52.4398 121.973 52.4897 121.673 52.6084 121.398C52.7272 121.123 52.9112 120.881 53.1445 120.693L90.075 90.9588C90.3646 90.7256 90.718 90.5855 91.0888 90.5569C91.4595 90.5283 91.8303 90.6126 92.1522 90.7987L98.2407 94.3139C98.5659 94.5015 98.826 94.7841 98.9862 95.1237C99.1464 95.4633 99.199 95.8438 99.1369 96.2141L91.3725 142.788C91.3234 143.081 91.2043 143.357 91.0253 143.594C90.8463 143.831 90.6126 144.021 90.3443 144.148C90.076 144.275 89.7809 144.336 89.4842 144.324C89.1875 144.313 88.898 144.23 88.6403 144.082L82.7225 140.666C82.3978 140.478 82.1381 140.195 81.9782 139.856C81.8183 139.516 81.7659 139.136 81.8279 138.766L85.6109 116.06C85.6729 115.69 85.6203 115.31 85.4602 114.97C85.3 114.63 85.0399 114.348 84.7146 114.16L81.23 112.148C80.9049 111.961 80.5301 111.877 80.1559 111.908C79.7817 111.939 79.4259 112.083 79.1363 112.322L61.3622 126.95C61.0728 127.189 60.7174 127.334 60.3435 127.365C59.9696 127.396 59.5935 127.312 59.2685 127.124Z" fill="#F7F5F2"/>
<path d="M120.987 140.509L115.1 143.908C114.841 144.058 114.549 144.143 114.249 144.155C113.95 144.166 113.652 144.105 113.382 143.976C113.112 143.847 112.877 143.654 112.698 143.413C112.519 143.173 112.402 142.893 112.356 142.597L105.07 95.7467C105.013 95.3792 105.068 95.0031 105.229 94.6678C105.39 94.3324 105.648 94.0535 105.97 93.8677L112.059 90.3525C112.384 90.1647 112.758 90.0807 113.133 90.1118C113.507 90.1429 113.863 90.2875 114.152 90.5265L150.604 120.537C150.833 120.726 151.013 120.968 151.129 121.241C151.244 121.515 151.292 121.812 151.268 122.108C151.244 122.404 151.149 122.69 150.991 122.941C150.832 123.192 150.616 123.401 150.359 123.551L144.441 126.968C144.116 127.155 143.742 127.239 143.368 127.207C142.994 127.176 142.639 127.031 142.349 126.793L124.577 112.164C124.287 111.925 123.931 111.78 123.557 111.749C123.183 111.718 122.808 111.802 122.483 111.99L118.998 114.001C118.673 114.189 118.413 114.472 118.253 114.811C118.093 115.151 118.04 115.531 118.102 115.902L121.883 138.609C121.945 138.979 121.893 139.359 121.733 139.698C121.573 140.037 121.312 140.321 120.987 140.509Z" fill="#F7F5F2"/>
</svg>
